# xmcd
#
# Track frame offsets:
#	150
#	18256
#	35934
#	53582
#	70103
#	85757
#	103677
#	119422
#	134535
#	151898
#	168102
#	181977
#	195620
#	211932
#	227250
#	245037
#	262693
#	278598
#
# Disc length: 4022 seconds
# Revision: 0
# Processed by: cddbd v1.5.2PL0 Copyright (c) Steve Scherf et al.
# Submitted via: dBpowerAMP V12.0
#
DISCID=e90fb412
DTITLE=Various Artist - Country Radio February 2009
DYEAR=2009
DGENRE=Country
TTITLE0=Little Big Town - Good Lord Willing
TTITLE1=Carrie Underwood - I Told You So
TTITLE2=Steve Azar - You're My Life
TTITLE3=Tara Oram - 538 Stars
TTITLE4=Montgomery Gentry - One In Every Crowd
TTITLE5=Tim McGraw - Nothin To Die For
TTITLE6=Point Of Grace - I Wish
TTITLE7=Taylor Swift - White Horse
TTITLE8=Brad Johner - Other Side Of The Radio
TTITLE9=Justin Moore - Small Town USA
TTITLE10=Road Hammers The - Homegrown
TTITLE11=Trace Adkins - Marry For Money
TTITLE12=Aaron Lines - When We Make Love
TTITLE13=Danielle Peck - Can't Behave
TTITLE14=Ha Ash With Brandi Carlile - Already Home
TTITLE15=Jessie Andrews - Everything
TTITLE16=Kevin Costner and Modern West - Long Hot Night
TTITLE17=Corb Lund - Horse Soldier Horse Soldier
EXTD=
EXTT0=
EXTT1=
EXTT2=
EXTT3=
EXTT4=
EXTT5=
EXTT6=
EXTT7=
EXTT8=
EXTT9=
EXTT10=
EXTT11=
EXTT12=
EXTT13=
EXTT14=
EXTT15=
EXTT16=
EXTT17=
PLAYORDER=
